<?xml version="1.0" encoding="iso-8859-1"?>
<!-- Uploaded to: SVG Repo, www.svgrepo.com, Generator: SVG Repo Mixer Tools -->
<svg version="1.1" id="Layer_1" xmlns="http://www.w3.org/2000/svg" xmlns:xlink="http://www.w3.org/1999/xlink" 
	 viewBox="0 0 512.001 512.001" xml:space="preserve">
<rect x="150.264" y="10.449" style="fill:#EFEEEE;" width="211.995" height="62.693"/>
<path style="fill:#FF3939;" d="M361.736,73.141h-211.47c-45.963,34.508-76.073,92.061-76.073,157.245v271.166h363.617V230.386
	C437.809,165.202,407.698,107.649,361.736,73.141z"/>
<path style="fill:#BF4F28;" d="M361.736,73.141h-211.47c-38.001,28.53-65.146,72.822-73.417,124.146
	c21.003-4.943,29.053-24.395,53.003-24.395c27.43,0,34.942,25.517,63.065,25.529c28.124-0.013,35.634-25.529,63.065-25.529
	c27.437,0,34.003,25.531,63.083,25.531c29.08,0,33.536-25.531,63.084-25.531h0.071c25.722,0,32.436,19.34,52.925,24.35
	C426.866,145.937,399.725,101.663,361.736,73.141z"/>
<path style="fill:#FFA30C;" d="M335.063,439.893H176.938c-15.196,0-27.515-12.319-27.515-27.515V283.509
	c0-15.197,12.319-27.515,27.515-27.515h158.124c15.197,0,27.515,12.319,27.515,27.515v128.868
	C362.578,427.574,350.259,439.893,335.063,439.893z"/>
<path d="M192.937,208.871h-0.041c-5.771,0-10.449-4.678-10.449-10.449c0-5.631,4.454-10.221,10.032-10.44
	c0.294-0.013,0.582-0.013,0.876,0c5.577,0.219,10.032,4.81,10.032,10.44C203.386,204.193,198.708,208.871,192.937,208.871z"/>
<path d="M111.808,286.034c-5.771,0-10.449-4.678-10.449-10.449v-0.137c0-5.771,4.678-10.449,10.449-10.449
	s10.449,4.678,10.449,10.449v0.137C122.256,281.356,117.578,286.034,111.808,286.034z"/>
<path d="M111.809,430.888c-5.771,0-10.449-4.678-10.449-10.449V309.389c0-5.771,4.678-10.449,10.449-10.449
	c5.771,0,10.449,4.678,10.449,10.449v111.052C122.257,426.21,117.579,430.888,111.809,430.888z"/>
<g>
	<circle style="fill:#FF3939;" cx="225.694" cy="362.071" r="30.301"/>
	<circle style="fill:#FF3939;" cx="286.297" cy="362.071" r="30.301"/>
</g>
<path d="M286.302,321.317c-3.66,0-7.207,0.493-10.585,1.402c-0.934-1.143-2.023-2.963-2.614-5.43
	c-0.705-2.94-0.813-7.401,2.681-11.947c3.516-4.576,2.657-11.135-1.918-14.651c-2.14-1.645-4.712-2.32-7.207-2.118
	c-0.3-0.026-0.601-0.046-0.907-0.046c-24.084,0-44.272,14.513-49.292,33.859c-18.032,4.197-31.512,20.389-31.512,39.681
	c0,22.47,18.28,40.75,40.75,40.75c12.019,0,22.836-5.234,30.301-13.537c7.466,8.305,18.282,13.537,30.301,13.537
	c22.47,0,40.75-18.28,40.75-40.75C327.051,339.597,308.772,321.317,286.302,321.317z M251.863,312.044
	c-0.259,4.542,0.378,9.168,1.974,13.684c0.962,2.724,2.222,5.241,3.701,7.504c-0.528,0.527-1.039,1.069-1.537,1.624
	c-4.722-5.253-10.786-9.269-17.647-11.517C240.98,318.494,245.787,314.491,251.863,312.044z M225.699,381.92
	c-10.947,0-19.853-8.905-19.853-19.853c0-10.947,8.905-19.853,19.853-19.853s19.853,8.905,19.853,19.853
	C245.552,373.015,236.646,381.92,225.699,381.92z M286.302,381.92c-10.947,0-19.853-8.905-19.853-19.853
	c0-10.947,8.905-19.853,19.853-19.853c10.947,0,19.853,8.905,19.853,19.853C306.155,373.015,297.249,381.92,286.302,381.92z"/>
<path d="M335.063,450.342H176.939c-20.933,0-37.964-17.03-37.964-37.964V283.509c0-20.933,17.03-37.964,37.964-37.964h158.124
	c20.933,0,37.964,17.03,37.964,37.964v128.868C373.027,433.311,355.996,450.342,335.063,450.342z M176.939,266.444
	c-9.41,0-17.066,7.656-17.066,17.066v128.868c0,9.41,7.656,17.066,17.066,17.066h158.124c9.41,0,17.066-7.656,17.066-17.066V283.509
	c0-9.41-7.656-17.066-17.066-17.066H176.939z"/>
<path d="M372.707,68.431V10.449C372.707,4.678,368.029,0,362.258,0H150.265c-5.771,0-10.449,4.678-10.449,10.449v57.575
	c-47.728,37.972-76.073,98.246-76.073,162.362v271.166c0,5.771,4.678,10.449,10.449,10.449h363.617
	c5.771,0,10.449-4.678,10.449-10.449V230.386C448.258,166.501,420.122,106.426,372.707,68.431z M160.714,20.898h191.095v41.795
	h-21.501V39.357c0-5.771-4.678-10.449-10.449-10.449c-5.771,0-10.449,4.678-10.449,10.449v23.335h-21.501V39.357
	c0-5.771-4.678-10.449-10.449-10.449s-10.449,4.678-10.449,10.449v23.335h-21.5V39.357c0-5.771-4.678-10.449-10.449-10.449
	c-5.771,0-10.449,4.678-10.449,10.449v23.335h-21.501V39.357c0-5.771-4.678-10.449-10.449-10.449
	c-5.771,0-10.449,4.678-10.449,10.449v23.335h-21.501V20.898H160.714z M427.36,491.102H84.641V230.385
	c0-8.473,0.563-16.865,1.63-25.132c7.7-3.02,13.773-7.462,19.211-11.45c7.973-5.846,14.271-10.463,24.371-10.463
	c10.249,0,16.754,4.705,24.989,10.662c0.831,0.601,1.662,1.202,2.498,1.799c4.698,3.352,11.223,2.263,14.575-2.435
	s2.262-11.223-2.435-14.575c-0.8-0.571-1.596-1.146-2.391-1.721c-9.478-6.856-20.221-14.627-37.236-14.627
	c-16.937,0-27.452,7.707-36.726,14.507c-0.442,0.324-0.881,0.644-1.32,0.964c10.476-37.543,32.042-70.855,62.002-94.324h204.382
	c29.748,23.303,51.222,56.307,61.783,93.525c-8.753-6.612-19.669-14.672-37.825-14.672c-18.339,0-29.307,8.292-38.12,14.955
	c-7.815,5.908-13.988,10.575-24.964,10.575c-11.331,0-17.962-4.863-26.358-11.02c-9.274-6.801-19.786-14.509-36.725-14.509
	c-17.015,0-27.757,7.771-37.235,14.626c-0.95,0.688-1.901,1.375-2.86,2.055c-4.706,3.339-5.815,9.862-2.475,14.568
	c3.339,4.706,9.861,5.815,14.568,2.475c1.01-0.717,2.012-1.442,3.014-2.166c8.235-5.957,14.739-10.661,24.988-10.661
	c10.099,0,16.395,4.617,24.367,10.463c9.153,6.712,20.544,15.066,38.717,15.066c17.988,0,28.843-8.208,37.566-14.803
	c7.927-5.993,14.19-10.728,25.589-10.728c11.331,0,17.594,4.733,25.525,10.726c5.069,3.829,10.729,8.095,17.969,11.057
	c1.078,8.309,1.647,16.745,1.647,25.262L427.36,491.102L427.36,491.102z"/>
</svg>